<svg viewBox="0 0 520 520" fill="none" xmlns="http://www.w3.org/2000/svg"><defs><lineargradient id="linkGrad" x1="0" y1="0" x2="1" y2="1"><stop offset="0%" stop-color="#8B5CF6"></stop><stop offset="100%" stop-color="#22D3EE"></stop></lineargradient><radialgradient id="earthFill" cx="35%" cy="30%" r="70%"><stop offset="0%" stop-color="#1a1030"></stop><stop offset="100%" stop-color="#08060D"></stop></radialgradient></defs><circle cx="260" cy="260" r="245" fill="url(#earthFill)" opacity="0.55"></circle><g class="globe-spin-group"><circle cx="260" cy="260" r="245" stroke="#22D3EE" stroke-width="1.2" stroke-dasharray="1 6" stroke-linecap="round" opacity="0.35"></circle><ellipse cx="260" cy="260" rx="245" ry="100" stroke="#8B5CF6" stroke-width="1" stroke-dasharray="1 6" stroke-linecap="round" opacity="0.32"></ellipse><ellipse cx="260" cy="177" rx="222" ry="63" stroke="#8B5CF6" stroke-width="0.9" stroke-dasharray="1 6" stroke-linecap="round" opacity="0.24"></ellipse><ellipse cx="260" cy="343" rx="222" ry="63" stroke="#8B5CF6" stroke-width="0.9" stroke-dasharray="1 6" stroke-linecap="round" opacity="0.24"></ellipse><ellipse cx="260" cy="115" rx="160" ry="32" stroke="#B39DFF" stroke-width="0.8" stroke-dasharray="1 5" stroke-linecap="round" opacity="0.18"></ellipse><ellipse cx="260" cy="405" rx="160" ry="32" stroke="#B39DFF" stroke-width="0.8" stroke-dasharray="1 5" stroke-linecap="round" opacity="0.18"></ellipse><ellipse cx="260" cy="260" rx="100" ry="245" stroke="#8B5CF6" stroke-width="1" stroke-dasharray="1 6" stroke-linecap="round" opacity="0.3"></ellipse><ellipse cx="260" cy="260" rx="100" ry="245" stroke="#C026D3" stroke-width="0.9" stroke-dasharray="1 6" stroke-linecap="round" opacity="0.22" transform="rotate(60 260 260)"></ellipse><ellipse cx="260" cy="260" rx="100" ry="245" stroke="#8B5CF6" stroke-width="0.9" stroke-dasharray="1 6" stroke-linecap="round" opacity="0.22" transform="rotate(120 260 260)"></ellipse><circle cx="112.2" cy="448.9" r="1.31" fill="#9FE7D8" opacity="0.45"></circle><circle cx="145.5" cy="481.0" r="1.34" fill="#9FE7D8" opacity="0.47"></circle><circle cx="143.6" cy="481.1" r="1.31" fill="#9FE7D8" opacity="0.46"></circle><circle cx="127.5" cy="467.9" r="1.28" fill="#9FE7D8" opacity="0.44"></circle><circle cx="85.7" cy="406.5" r="1.31" fill="#9FE7D8" opacity="0.46"></circle><circle cx="130.0" cy="467.2" r="1.33" fill="#9FE7D8" opacity="0.46"></circle><circle cx="125.9" cy="468.3" r="1.25" fill="#9FE7D8" opacity="0.43"></circle><circle cx="125.2" cy="463.8" r="1.31" fill="#9FE7D8" opacity="0.45"></circle><circle cx="109.6" cy="424.4" r="1.47" fill="#9FE7D8" opacity="0.54"></circle><circle cx="133.0" cy="461.3" r="1.42" fill="#9FE7D8" opacity="0.51"></circle><circle cx="133.2" cy="472.6" r="1.3" fill="#9FE7D8" opacity="0.45"></circle><circle cx="108.7" cy="433.9" r="1.4" fill="#9FE7D8" opacity="0.5"></circle><circle cx="100.8" cy="437.9" r="1.25" fill="#9FE7D8" opacity="0.42"></circle><circle cx="124.2" cy="169.7" r="1.55" fill="#9FE7D8" opacity="0.57"></circle><circle cx="115.7" cy="220.1" r="1.67" fill="#9FE7D8" opacity="0.64"></circle><circle cx="100.2" cy="245.6" r="1.63" fill="#9FE7D8" opacity="0.62"></circle><circle cx="74.4" cy="229.0" r="1.36" fill="#9FE7D8" opacity="0.48"></circle><circle cx="82.7" cy="234.2" r="1.48" fill="#9FE7D8" opacity="0.54"></circle><circle cx="78.3" cy="214.3" r="1.34" fill="#9FE7D8" opacity="0.47"></circle><circle cx="93.0" cy="194.1" r="1.42" fill="#9FE7D8" opacity="0.51"></circle><circle cx="62.3" cy="267.6" r="1.3" fill="#9FE7D8" opacity="0.45"></circle><circle cx="111.4" cy="175.1" r="1.48" fill="#9FE7D8" opacity="0.54"></circle><circle cx="105.2" cy="243.6" r="1.66" fill="#9FE7D8" opacity="0.63"></circle><circle cx="81.7" cy="228.9" r="1.45" fill="#9FE7D8" opacity="0.52"></circle><circle cx="125.2" cy="176.3" r="1.59" fill="#9FE7D8" opacity="0.59"></circle><circle cx="96.3" cy="238.8" r="1.6" fill="#9FE7D8" opacity="0.6"></circle><circle cx="104.9" cy="214.2" r="1.59" fill="#9FE7D8" opacity="0.6"></circle><circle cx="106.1" cy="247.1" r="1.67" fill="#9FE7D8" opacity="0.64"></circle><circle cx="106.5" cy="220.0" r="1.62" fill="#9FE7D8" opacity="0.61"></circle><circle cx="135.9" cy="163.6" r="1.59" fill="#9FE7D8" opacity="0.6"></circle><circle cx="338.3" cy="448.3" r="1.88" fill="#9FE7D8" opacity="0.74"></circle><circle cx="324.7" cy="392.8" r="2.02" fill="#9FE7D8" opacity="0.81"></circle><circle cx="298.3" cy="444.7" r="1.91" fill="#9FE7D8" opacity="0.75"></circle><circle cx="352.6" cy="429.2" r="1.92" fill="#9FE7D8" opacity="0.76"></circle><circle cx="370.3" cy="409.7" r="1.95" fill="#9FE7D8" opacity="0.77"></circle><circle cx="328.2" cy="440.5" r="1.91" fill="#9FE7D8" opacity="0.76"></circle><circle cx="343.3" cy="437.6" r="1.91" fill="#9FE7D8" opacity="0.75"></circle><circle cx="353.2" cy="434.9" r="1.91" fill="#9FE7D8" opacity="0.75"></circle><circle cx="326.6" cy="418.3" r="1.97" fill="#9FE7D8" opacity="0.78"></circle><circle cx="329.5" cy="449.1" r="1.88" fill="#9FE7D8" opacity="0.74"></circle><circle cx="354.7" cy="416.3" r="1.95" fill="#9FE7D8" opacity="0.78"></circle><circle cx="320.4" cy="455.8" r="1.87" fill="#9FE7D8" opacity="0.73"></circle><circle cx="334.3" cy="405.0" r="1.99" fill="#9FE7D8" opacity="0.8"></circle><circle cx="327.5" cy="427.9" r="1.95" fill="#9FE7D8" opacity="0.77"></circle><circle cx="311.2" cy="454.4" r="1.88" fill="#9FE7D8" opacity="0.74"></circle><circle cx="307.4" cy="451.9" r="1.88" fill="#9FE7D8" opacity="0.74"></circle><circle cx="411.5" cy="227.3" r="1.94" fill="#9FE7D8" opacity="0.77"></circle><circle cx="417.5" cy="292.6" r="1.98" fill="#9FE7D8" opacity="0.79"></circle><circle cx="389.3" cy="261.7" r="2.02" fill="#9FE7D8" opacity="0.81"></circle><circle cx="408.5" cy="257.9" r="1.98" fill="#9FE7D8" opacity="0.79"></circle><circle cx="396.0" cy="245.1" r="1.99" fill="#9FE7D8" opacity="0.8"></circle><circle cx="382.7" cy="268.6" r="2.03" fill="#9FE7D8" opacity="0.82"></circle><circle cx="406.7" cy="278.3" r="2.0" fill="#9FE7D8" opacity="0.8"></circle><circle cx="391.7" cy="319.1" r="2.02" fill="#9FE7D8" opacity="0.81"></circle><circle cx="366.8" cy="233.6" r="2.02" fill="#9FE7D8" opacity="0.81"></circle><circle cx="423.3" cy="254.8" r="1.94" fill="#9FE7D8" opacity="0.77"></circle><circle cx="400.8" cy="240.4" r="1.98" fill="#9FE7D8" opacity="0.79"></circle><circle cx="265.0" cy="308.1" r="2.09" fill="#9FE7D8" opacity="0.84"></circle><circle cx="394.4" cy="214.1" r="1.95" fill="#9FE7D8" opacity="0.78"></circle><circle cx="393.5" cy="264.0" r="2.01" fill="#9FE7D8" opacity="0.81"></circle><circle cx="412.5" cy="239.1" r="1.95" fill="#9FE7D8" opacity="0.78"></circle><circle cx="359.4" cy="256.6" r="2.05" fill="#9FE7D8" opacity="0.83"></circle><circle cx="390.6" cy="333.4" r="2.02" fill="#9FE7D8" opacity="0.81"></circle><circle cx="379.3" cy="230.7" r="2.0" fill="#9FE7D8" opacity="0.8"></circle><circle cx="380.8" cy="241.6" r="2.01" fill="#9FE7D8" opacity="0.81"></circle><circle cx="358.9" cy="162.4" r="1.89" fill="#9FE7D8" opacity="0.75"></circle><circle cx="328.7" cy="279.5" r="2.09" fill="#9FE7D8" opacity="0.84"></circle><circle cx="424.6" cy="253.2" r="1.94" fill="#9FE7D8" opacity="0.77"></circle><circle cx="531.5" cy="355.0" r="1.34" fill="#9FE7D8" opacity="0.47"></circle><circle cx="442.3" cy="420.0" r="1.75" fill="#9FE7D8" opacity="0.68"></circle><circle cx="467.8" cy="433.0" r="1.59" fill="#9FE7D8" opacity="0.59"></circle><circle cx="476.3" cy="419.9" r="1.59" fill="#9FE7D8" opacity="0.6"></circle><circle cx="510.5" cy="415.9" r="1.29" fill="#9FE7D8" opacity="0.45"></circle><circle cx="489.6" cy="443.9" r="1.34" fill="#9FE7D8" opacity="0.47"></circle><circle cx="481.6" cy="445.6" r="1.41" fill="#9FE7D8" opacity="0.51"></circle><circle cx="426.8" cy="480.9" r="1.53" fill="#9FE7D8" opacity="0.57"></circle><circle cx="485.1" cy="442.1" r="1.41" fill="#9FE7D8" opacity="0.5"></circle><circle cx="502.8" cy="433.6" r="1.23" fill="#9FE7D8" opacity="0.42"></circle><circle cx="512.5" cy="343.7" r="1.56" fill="#9FE7D8" opacity="0.58"></circle><circle cx="485.7" cy="424.3" r="1.51" fill="#9FE7D8" opacity="0.56"></circle><circle cx="507.1" cy="362.3" r="1.57" fill="#9FE7D8" opacity="0.58"></circle><circle cx="477.5" cy="464.3" r="1.26" fill="#9FE7D8" opacity="0.43"></circle><circle cx="465.1" cy="450.1" r="1.51" fill="#9FE7D8" opacity="0.56"></circle><circle cx="496.0" cy="402.2" r="1.53" fill="#9FE7D8" opacity="0.57"></circle><circle cx="483.7" cy="445.3" r="1.39" fill="#9FE7D8" opacity="0.5"></circle><circle cx="504.7" cy="406.3" r="1.44" fill="#9FE7D8" opacity="0.52"></circle><path class="bc-link" d="M 209.7 457.6 Q 343.6 438.2 448.0 325.2" style="--delay: 0.0s;"></path><path class="bc-link" d="M 448.0 325.2 Q 362.0 219.1 217.5 189.5" style="--delay: 0.35s;"></path><path class="bc-link" d="M 217.5 189.5 Q 423.0 336.2 497.6 444.4" style="--delay: 0.7s;"></path><path class="bc-link" d="M 497.6 444.4 Q 543.6 296.9 483.8 150.7" style="--delay: 1.05s;"></path><path class="bc-link" d="M 483.8 150.7 Q 239.8 163.9 62.4 327.5" style="--delay: 1.4s;"></path><path class="bc-link" d="M 62.4 327.5 Q 172.1 442.6 361.2 469.0" style="--delay: 1.75s;"></path><path class="bc-link" d="M 361.2 469.0 Q 407.3 243.0 330.1 82.5" style="--delay: 2.1s;"></path><path class="bc-link" d="M 330.1 82.5 Q 219.6 220.1 209.7 457.6" style="--delay: 2.45s;"></path><path class="bc-link" d="M 209.7 457.6 Q 420.5 310.7 483.8 150.7" style="--delay: 2.8s;"></path><path class="bc-link" d="M 217.5 189.5 Q 270.0 382.4 361.2 469.0" style="--delay: 3.15s;"></path><path class="bc-link" d="M 448.0 325.2 Q 195.4 361.5 62.4 327.5" style="--delay: 3.5s;"></path><g class="bc-node" transform="translate(209.7,457.6)" style="--delay: 0.0s;"><circle class="bc-node-glow" r="10"></circle><circle class="bc-node-core" r="3.2"></circle></g><g class="bc-node" transform="translate(448.0,325.2)" style="--delay: 0.27s;"><circle class="bc-node-glow" r="10"></circle><circle class="bc-node-core" r="3.2"></circle></g><g class="bc-node" transform="translate(217.5,189.5)" style="--delay: 0.54s;"><circle class="bc-node-glow" r="10"></circle><circle class="bc-node-core" r="3.2"></circle></g><g class="bc-node" transform="translate(497.6,444.4)" style="--delay: 0.81s;"><circle class="bc-node-glow" r="10"></circle><circle class="bc-node-core" r="3.2"></circle></g><g class="bc-node" transform="translate(483.8,150.7)" style="--delay: 1.08s;"><circle class="bc-node-glow" r="10"></circle><circle class="bc-node-core" r="3.2"></circle></g><g class="bc-node" transform="translate(62.4,327.5)" style="--delay: 1.35s;"><circle class="bc-node-glow" r="10"></circle><circle class="bc-node-core" r="3.2"></circle></g><g class="bc-node" transform="translate(361.2,469.0)" style="--delay: 1.62s;"><circle class="bc-node-glow" r="10"></circle><circle class="bc-node-core" r="3.2"></circle></g><g class="bc-node" transform="translate(330.1,82.5)" style="--delay: 1.89s;"><circle class="bc-node-glow" r="10"></circle><circle class="bc-node-core" r="3.2"></circle></g></g></svg>